<svg width="263" height="29" viewBox="0 0 263 29" fill="none" xmlns="http://www.w3.org/2000/svg">
<path d="M57.664 6.2V23H52.912V16.448H46.432V23H41.68V6.2H46.432V12.512H52.912V6.2H57.664ZM75.1519 19.736H68.0479L66.7279 23H61.8799L69.2959 6.2H73.9759L81.4159 23H76.4719L75.1519 19.736ZM73.7599 16.232L71.5999 10.856L69.4399 16.232H73.7599ZM93.7848 23.336C92.0248 23.336 90.4408 22.968 89.0328 22.232C87.6408 21.48 86.5448 20.44 85.7448 19.112C84.9448 17.784 84.5448 16.28 84.5448 14.6C84.5448 12.92 84.9448 11.416 85.7448 10.088C86.5448 8.76 87.6408 7.728 89.0328 6.992C90.4408 6.24 92.0248 5.864 93.7848 5.864C95.3208 5.864 96.7048 6.136 97.9368 6.68C99.1688 7.224 100.193 8.008 101.009 9.032L97.9848 11.768C96.8968 10.456 95.5768 9.8 94.0248 9.8C93.1128 9.8 92.2968 10 91.5768 10.4C90.8728 10.8 90.3208 11.368 89.9208 12.104C89.5368 12.824 89.3448 13.656 89.3448 14.6C89.3448 15.544 89.5368 16.384 89.9208 17.12C90.3208 17.84 90.8728 18.4 91.5768 18.8C92.2968 19.2 93.1128 19.4 94.0248 19.4C95.5768 19.4 96.8968 18.744 97.9848 17.432L101.009 20.168C100.193 21.192 99.1688 21.976 97.9368 22.52C96.7048 23.064 95.3208 23.336 93.7848 23.336ZM112.487 16.904L110.711 18.8V23H106.007V6.2H110.711V13.184L117.215 6.2H122.448L115.583 13.64L122.808 23H117.287L112.487 16.904ZM140.422 19.328V23H126.934V6.2H140.11V9.872H131.638V12.704H139.102V16.256H131.638V19.328H140.422ZM153.283 18.536H150.691V23H145.939V6.2H153.619C155.139 6.2 156.459 6.456 157.579 6.968C158.699 7.464 159.563 8.184 160.171 9.128C160.779 10.056 161.083 11.152 161.083 12.416C161.083 13.632 160.795 14.696 160.219 15.608C159.659 16.504 158.851 17.208 157.795 17.72L161.419 23H156.331L153.283 18.536ZM156.283 12.416C156.283 11.632 156.035 11.024 155.539 10.592C155.043 10.16 154.307 9.944 153.331 9.944H150.691V14.864H153.331C154.307 14.864 155.043 14.656 155.539 14.24C156.035 13.808 156.283 13.2 156.283 12.416ZM192.433 6.2V23H188.521L181.105 14.048V23H176.449V6.2H180.361L187.777 15.152V6.2H192.433ZM212.153 19.328V23H198.665V6.2H211.841V9.872H203.369V12.704H210.833V16.256H203.369V19.328H212.153ZM243.788 6.2L238.34 23H233.252L230.036 12.776L226.676 23H221.588L216.14 6.2H221.036L224.42 16.928L227.972 6.2H232.34L235.724 17.024L239.252 6.2H243.788ZM254.275 23.336C252.915 23.336 251.595 23.168 250.315 22.832C249.035 22.496 247.995 22.048 247.195 21.488L248.755 17.984C249.507 18.48 250.379 18.88 251.371 19.184C252.363 19.488 253.339 19.64 254.299 19.64C256.123 19.64 257.035 19.184 257.035 18.272C257.035 17.792 256.771 17.44 256.243 17.216C255.731 16.976 254.899 16.728 253.747 16.472C252.483 16.2 251.427 15.912 250.579 15.608C249.731 15.288 249.003 14.784 248.395 14.096C247.787 13.408 247.483 12.48 247.483 11.312C247.483 10.288 247.763 9.368 248.323 8.552C248.883 7.72 249.715 7.064 250.819 6.584C251.939 6.104 253.307 5.864 254.923 5.864C256.027 5.864 257.115 5.992 258.187 6.248C259.259 6.488 260.203 6.848 261.019 7.328L259.555 10.856C257.955 9.992 256.403 9.56 254.899 9.56C253.955 9.56 253.267 9.704 252.835 9.992C252.403 10.264 252.187 10.624 252.187 11.072C252.187 11.52 252.443 11.856 252.955 12.08C253.467 12.304 254.291 12.536 255.427 12.776C256.707 13.048 257.763 13.344 258.595 13.664C259.443 13.968 260.171 14.464 260.779 15.152C261.403 15.824 261.715 16.744 261.715 17.912C261.715 18.92 261.435 19.832 260.875 20.648C260.315 21.464 259.475 22.12 258.355 22.616C257.235 23.096 255.875 23.336 254.275 23.336Z" fill="#222F40"/>
<g filter="url(#filter0_d)">
<rect x="10" y="10" width="19" height="13" fill="#8E9AE7"/>
<rect x="4" y="6" width="21" height="17" fill="#4653A9"/>
</g>
<defs>
<filter id="filter0_d" x="0" y="4" width="33" height="25" filterUnits="userSpaceOnUse" color-interpolation-filters="sRGB">
<feFlood flood-opacity="0" result="BackgroundImageFix"/>
<feColorMatrix in="SourceAlpha" type="matrix" values="0 0 0 0 0 0 0 0 0 0 0 0 0 0 0 0 0 0 127 0"/>
<feOffset dy="2"/>
<feGaussianBlur stdDeviation="2"/>
<feColorMatrix type="matrix" values="0 0 0 0 0 0 0 0 0 0 0 0 0 0 0 0 0 0 0.25 0"/>
<feBlend mode="normal" in2="BackgroundImageFix" result="effect1_dropShadow"/>
<feBlend mode="normal" in="SourceGraphic" in2="effect1_dropShadow" result="shape"/>
</filter>
</defs>
</svg>
