<svg width="250" height="29" viewBox="0 0 250 29" fill="none" xmlns="http://www.w3.org/2000/svg">
<path d="M44.664 6.2V23H39.912V16.448H33.432V23H28.68V6.2H33.432V12.512H39.912V6.2H44.664ZM62.1519 19.736H55.0479L53.7279 23H48.8799L56.2959 6.2H60.9759L68.4159 23H63.4719L62.1519 19.736ZM60.7599 16.232L58.5999 10.856L56.4399 16.232H60.7599ZM80.7848 23.336C79.0248 23.336 77.4408 22.968 76.0328 22.232C74.6408 21.48 73.5448 20.44 72.7448 19.112C71.9448 17.784 71.5448 16.28 71.5448 14.6C71.5448 12.92 71.9448 11.416 72.7448 10.088C73.5448 8.76 74.6408 7.728 76.0328 6.992C77.4408 6.24 79.0248 5.864 80.7848 5.864C82.3208 5.864 83.7048 6.136 84.9368 6.68C86.1688 7.224 87.1928 8.008 88.0088 9.032L84.9848 11.768C83.8968 10.456 82.5768 9.8 81.0248 9.8C80.1128 9.8 79.2968 10 78.5768 10.4C77.8728 10.8 77.3208 11.368 76.9208 12.104C76.5368 12.824 76.3448 13.656 76.3448 14.6C76.3448 15.544 76.5368 16.384 76.9208 17.12C77.3208 17.84 77.8728 18.4 78.5768 18.8C79.2968 19.2 80.1128 19.4 81.0248 19.4C82.5768 19.4 83.8968 18.744 84.9848 17.432L88.0088 20.168C87.1928 21.192 86.1688 21.976 84.9368 22.52C83.7048 23.064 82.3208 23.336 80.7848 23.336ZM99.4875 16.904L97.7115 18.8V23H93.0075V6.2H97.7115V13.184L104.215 6.2H109.448L102.583 13.64L109.808 23H104.287L99.4875 16.904ZM127.422 19.328V23H113.934V6.2H127.11V9.872H118.638V12.704H126.102V16.256H118.638V19.328H127.422ZM140.283 18.536H137.691V23H132.939V6.2H140.619C142.139 6.2 143.459 6.456 144.579 6.968C145.699 7.464 146.563 8.184 147.171 9.128C147.779 10.056 148.083 11.152 148.083 12.416C148.083 13.632 147.795 14.696 147.219 15.608C146.659 16.504 145.851 17.208 144.795 17.72L148.419 23H143.331L140.283 18.536ZM143.283 12.416C143.283 11.632 143.035 11.024 142.539 10.592C142.043 10.16 141.307 9.944 140.331 9.944H137.691V14.864H140.331C141.307 14.864 142.043 14.656 142.539 14.24C143.035 13.808 143.283 13.2 143.283 12.416ZM179.433 6.2V23H175.521L168.105 14.048V23H163.449V6.2H167.361L174.777 15.152V6.2H179.433ZM199.153 19.328V23H185.665V6.2H198.841V9.872H190.369V12.704H197.833V16.256H190.369V19.328H199.153ZM230.788 6.2L225.34 23H220.252L217.036 12.776L213.676 23H208.588L203.14 6.2H208.036L211.42 16.928L214.972 6.2H219.34L222.724 17.024L226.252 6.2H230.788ZM241.275 23.336C239.915 23.336 238.595 23.168 237.315 22.832C236.035 22.496 234.995 22.048 234.195 21.488L235.755 17.984C236.507 18.48 237.379 18.88 238.371 19.184C239.363 19.488 240.339 19.64 241.299 19.64C243.123 19.64 244.035 19.184 244.035 18.272C244.035 17.792 243.771 17.44 243.243 17.216C242.731 16.976 241.899 16.728 240.747 16.472C239.483 16.2 238.427 15.912 237.579 15.608C236.731 15.288 236.003 14.784 235.395 14.096C234.787 13.408 234.483 12.48 234.483 11.312C234.483 10.288 234.763 9.368 235.323 8.552C235.883 7.72 236.715 7.064 237.819 6.584C238.939 6.104 240.307 5.864 241.923 5.864C243.027 5.864 244.115 5.992 245.187 6.248C246.259 6.488 247.203 6.848 248.019 7.328L246.555 10.856C244.955 9.992 243.403 9.56 241.899 9.56C240.955 9.56 240.267 9.704 239.835 9.992C239.403 10.264 239.187 10.624 239.187 11.072C239.187 11.52 239.443 11.856 239.955 12.08C240.467 12.304 241.291 12.536 242.427 12.776C243.707 13.048 244.763 13.344 245.595 13.664C246.443 13.968 247.171 14.464 247.779 15.152C248.403 15.824 248.715 16.744 248.715 17.912C248.715 18.92 248.435 19.832 247.875 20.648C247.315 21.464 246.475 22.12 245.355 22.616C244.235 23.096 242.875 23.336 241.275 23.336Z" fill="#222F40"/>
<rect x="6" y="11" width="13" height="13" fill="#C9E0F3"/>
<rect y="5" width="13" height="13" fill="#4653A9"/>
</svg>
